<svg viewBox="0 0 455 153" fill="currentColor" xmlns="http://www.w3.org/2000/svg" role="img" aria-label="Fintevo">
<path d="M83.356 120.542V53.8181H100.436V120.542H83.356ZM83.4033 66.6361V53.8181H100.436V66.6361H83.4033Z"></path>
<rect x="38.2828" y="27" width="154.56" height="15.36"></rect>
<path d="M45.9637 27C41.7223 27 38.2832 30.4383 38.2831 34.6797V66.751L71.7147 66.6367V81.1436L38.2831 81.2588V120.542H21.0038V44.2803C21.0038 34.7369 28.7398 27.0003 38.2831 27H45.9637Z"></path>
<path d="M192.843 27C201.653 27.0085 208.788 34.1621 208.772 42.9746L208.755 52.5205H229.322V65.0547H208.732L208.679 95.2832C208.679 98.5598 209.538 101.099 211.259 102.901C213.061 104.622 215.601 105.481 218.878 105.481H229.322V120.104H219.737C213.593 120.104 208.515 119.326 204.501 117.77C200.569 116.131 197.619 113.428 195.653 109.66C193.687 105.81 192.704 100.648 192.704 94.1768L192.758 65.0547H182.137V52.5205H192.78L192.813 34.042C192.489 30.0992 189.189 27.0002 185.163 27H192.843Z"></path>
<path d="M114.123 120.773V54.049H127.64V82.68H126.411C126.411 75.8807 127.312 70.2282 129.114 65.7226C130.916 61.1351 133.579 57.6944 137.101 55.4007C140.706 53.1069 145.17 51.96 150.495 51.96H151.233C159.179 51.96 165.2 54.5405 169.296 59.7015C173.392 64.7805 175.44 72.3991 175.44 82.5571V120.773H158.36V81.0826C158.36 76.9866 157.172 73.6688 154.796 71.1293C152.502 68.5898 149.307 67.32 145.211 67.32C141.034 67.32 137.634 68.6307 135.012 71.2522C132.473 73.7917 131.203 77.2323 131.203 81.5741V120.773H114.123Z"></path>
<path d="M405.976 122.877C400.078 122.877 394.876 121.935 390.37 120.051C385.865 118.167 382.055 115.627 378.942 112.432C375.83 109.155 373.454 105.469 371.815 101.373C370.259 97.277 369.481 93.0172 369.481 88.5935V86.013C369.481 81.4255 370.3 77.0838 371.938 72.9878C373.659 68.8098 376.075 65.1234 379.188 61.9286C382.383 58.6518 386.233 56.1122 390.739 54.31C395.245 52.4258 400.324 51.4838 405.976 51.4838C411.629 51.4838 416.708 52.4258 421.213 54.31C425.719 56.1122 429.528 58.6518 432.641 61.9286C435.836 65.1234 438.253 68.8098 439.891 72.9878C441.529 77.0838 442.349 81.4255 442.349 86.013V88.5935C442.349 93.0172 441.529 97.277 439.891 101.373C438.334 105.469 436 109.155 432.887 112.432C429.774 115.627 425.965 118.167 421.459 120.051C416.953 121.935 411.792 122.877 405.976 122.877ZM405.976 108.254C410.154 108.254 413.677 107.353 416.544 105.551C419.411 103.667 421.582 101.168 423.056 98.0553C424.531 94.8604 425.268 91.2559 425.268 87.2418C425.268 83.1458 424.49 79.5414 422.934 76.4284C421.459 73.2335 419.247 70.735 416.298 68.9327C413.431 67.0486 409.99 66.1065 405.976 66.1065C401.962 66.1065 398.48 67.0486 395.531 68.9327C392.664 70.735 390.452 73.2335 388.896 76.4284C387.339 79.5414 386.561 83.1458 386.561 87.2418C386.561 91.2559 387.298 94.8604 388.773 98.0553C390.329 101.168 392.541 103.667 395.408 105.551C398.276 107.353 401.798 108.254 405.976 108.254Z"></path>
<path d="M322.21 120.542L301.321 53.8186H318.893L338.922 120.542H322.21ZM327.248 120.542V106.534H345.312V120.542H327.248ZM334.007 120.542L351.21 53.8186H367.676L349.613 120.542H334.007Z"></path>
<path d="M267.444 122.877C261.71 122.877 256.672 121.894 252.33 119.928C248.07 117.962 244.507 115.34 241.639 112.064C238.854 108.705 236.724 104.978 235.25 100.882C233.857 96.7855 233.161 92.6076 233.161 88.3478V86.013C233.161 81.5894 233.857 77.3295 235.25 73.2335C236.724 69.0556 238.854 65.3692 241.639 62.1743C244.507 58.8975 248.029 56.317 252.207 54.4329C256.385 52.4668 261.218 51.4838 266.707 51.4838C273.916 51.4838 279.937 53.0812 284.77 56.2761C289.686 59.389 293.372 63.526 295.83 68.687C298.287 73.766 299.516 79.2547 299.516 85.1529V91.2969H240.411V80.8521H288.825L283.542 86.013C283.542 81.7532 282.927 78.1078 281.698 75.0767C280.47 72.0457 278.585 69.711 276.046 68.0726C273.588 66.4342 270.475 65.615 266.707 65.615C262.939 65.615 259.744 66.4751 257.122 68.1954C254.501 69.9158 252.494 72.4143 251.101 75.6911C249.79 78.886 249.135 82.7362 249.135 87.2418C249.135 91.4198 249.79 95.1471 251.101 98.4239C252.412 101.619 254.419 104.158 257.122 106.042C259.826 107.845 263.266 108.746 267.444 108.746C271.622 108.746 275.022 107.927 277.643 106.288C280.265 104.568 281.944 102.479 282.681 100.021H298.41C297.427 104.609 295.543 108.623 292.757 112.064C289.972 115.504 286.409 118.167 282.067 120.051C277.807 121.935 272.933 122.877 267.444 122.877Z"></path>
</svg>